<svg id="visual" viewBox="0 0 1920.183 1075.636" width="1920.183" height="1075.636" xmlns="http://www.w3.org/2000/svg" xmlns:xlink="http://www.w3.org/1999/xlink" version="1.1"><rect x="0" y="0" width="1920.183" height="1075.636" fill="#001122"></rect><path d="M0 759L45.7 744.8C91.3 730.7 182.7 702.3 274.2 708.5C365.7 714.7 457.3 755.3 548.8 740C640.3 724.7 731.7 653.3 823 573.7C914.3 494 1005.7 406 1097.2 367.8C1188.7 329.7 1280.3 341.3 1371.8 368.7C1463.3 396 1554.7 439 1646 439.3C1737.3 439.7 1828.7 397.3 1874.3 376.2L1920 355L1920 0L1874.3 0C1828.7 0 1737.3 0 1646 0C1554.7 0 1463.3 0 1371.8 0C1280.3 0 1188.7 0 1097.2 0C1005.7 0 914.3 0 823 0C731.7 0 640.3 0 548.8 0C457.3 0 365.7 0 274.2 0C182.7 0 91.3 0 45.7 0L0 0Z" fill="#FFFFFF" stroke-linecap="round" stroke-linejoin="miter"></path></svg>